<svg xmlns="http://www.w3.org/2000/svg" viewBox="0 0 1329.5 772.3" enable-background="new 0 0 1329.5 772.3"><g><path stroke="#3EB5F1" stroke-width="36" stroke-miterlimit="10" fill="none" d="M18 18h1293.5v736.3H18z"/><path fill="#3EB5F1" d="M597.3 166.7c2.5 74.6-1.1 149.3 1.5 224 .5 13.3 14.5 21.7 26.3 15.1 70.4-39.1 138.1-82.8 207.4-123.9 20-11.9 40.1-23.5 60.4-34.7 8-4.4 11.3-16.1 6.3-23.9-5.2-8.1-15.4-11-23.9-6.3-70.6 39-138.3 82.7-207.5 123.8-20 11.9-40.1 23.5-60.4 34.7 8.8 5 17.6 10.1 26.3 15.1-2.5-74.6 1.1-149.3-1.5-224-.3-9.1-7.8-17.9-17.5-17.5-9.2.5-17.8 7.8-17.4 17.6zM632.3 336.8c68.1-39.9 135.5-80.8 203.2-121.2 19-11.3 38.1-22.6 57.2-33.8 7.9-4.6 11.4-16 6.3-23.9-5.1-8-15.5-11.2-23.9-6.3-68.1 39.9-135.5 80.8-203.2 121.2-19 11.3-38.1 22.6-57.2 33.8-7.9 4.6-11.4 16-6.3 23.9 5.1 7.9 15.4 11.2 23.9 6.3zM866.3 166.7c.5 71.9-.3 143.8.1 215.6.1 9.2 8 17.9 17.5 17.5 9.4-.4 17.6-7.7 17.5-17.5-.5-71.9.3-143.8-.1-215.6-.1-9.2-8-17.9-17.5-17.5-9.4.4-17.5 7.6-17.5 17.5zM112 159.2v449.1c0 9.2 8 17.9 17.5 17.5 9.5-.4 17.5-7.7 17.5-17.5V159.2c0-9.2-8-17.9-17.5-17.5-9.5.4-17.5 7.7-17.5 17.5zM117.1 171.6c54.7 45.6 111.6 88.5 167.2 132.9 15.9 12.7 31.7 25.5 47.3 38.5 7 5.8 18 7.4 24.7 0 5.9-6.5 7.5-18.5 0-24.7-54.7-45.6-111.6-88.5-167.2-132.9-15.9-12.7-31.7-25.5-47.3-38.5-7-5.8-18-7.4-24.7 0-5.9 6.4-7.5 18.4 0 24.7zM493.9 166.7c-.8 115-5.8 229.9-8.4 344.9-.7 32.3-1.3 64.5-1.5 96.8-.1 9.2 8.1 17.9 17.5 17.5 9.5-.4 17.4-7.7 17.5-17.5.8-115 5.8-229.9 8.4-344.9.7-32.3 1.3-64.5 1.5-96.8.1-9.2-8.1-17.9-17.5-17.5-9.5.4-17.4 7.6-17.5 17.5zM190.9 300.6c40 36.2 83.9 68.1 122.4 106 9.4 9.3 18.5 18.9 26.9 29 3.6 4.3 5.6 6.9 9.6 13.1 1.6 2.4 3 4.9 4.4 7.4.8 1.5 1.6 3 2.4 4.6.2.5 2.1 4.8 1 2.1 2.2 5.5 3.9 11.2 4.7 17.1-.5-4 0 1.2 0 1.7.1 1.6.1 3.2.1 4.8 0 1.1-.1 2.1-.1 3.2-.1 1-.2 2.1-.3 3.1.3-2.1.2-2.1-.1 0-.8 2.8-1.5 5.5-2.4 8.2-.9 2.6 2-3.2-.4.8-.8 1.3-1.6 2.7-2.4 4.1-2.3 4.2 2.3-2.1-.7 1-.6.6-1.2 1.3-1.9 2-1 1-2 1.9-3 2.7 3.4-2.8-1.3.7-2.1 1.1-.8.5-1.6.8-2.4 1.3-3.8 2.1 3.3-.8-.8.3-1.3.4-2.6.8-3.9 1.1-.4.1-.9.2-1.3.3-2 .3-1.8.3.7 0-1 .5-5.8.6-6.6 0 .7.1 1.4.2 2 .3-.9-.1-1.7-.3-2.6-.5-.9-.2-4.6-1.8-.8 0-1.2-.6-2.3-1.3-3.5-1.9-3.6-1.8 2.1 2.4-.7-.5-.6-.6-1.6-1.9-2.3-2.3-1.8-.9 1.8 3.1-.1-.1-.7-1.1-1.4-2.2-2.1-3.4-.5-.9-1.7-4.7-.4-.7-.8-2.6-1.5-5.2-2.1-7.9-1-4.4 0 3.7 0-.8 0-1.2-.1-2.3-.1-3.5 0-1.2 0-2.3.1-3.5.1-1 1-5.2 0-.8.5-2.5 1-4.9 1.8-7.3.5-1.6 1.1-3.2 1.7-4.8-1.2 2.9 1.5-3 1.8-3.5 2.9-5.6 6.3-10.8 10-15.9.7-.9 1.4-1.9 2-2.8 0 0 3.5-4.5 1.4-1.9 2-2.6 4.1-5.2 6.1-7.8 31.6-40.3 58.6-84 85.4-127.6 15.3-24.8 30.4-49.7 46.2-74.2 7.5-11.6 15.1-23 23-34.3 4-5.7 8-11.3 12.1-16.9 1.9-2.5 3.7-5 5.6-7.5.2-.3 3.4-4.4 1-1.4 1.2-1.6 2.5-3.2 3.8-4.8 5.7-7.2 7.5-17.8 0-24.7-6.3-5.8-18.7-7.7-24.7 0-34.2 43.3-63 90.4-91.8 137.4-14.6 23.8-29.2 47.7-44.5 71.1-7.2 11-14.5 22-22.1 32.7-3.7 5.2-7.4 10.4-11.2 15.5-1.9 2.5-3.7 5-5.6 7.5-3.1 4.1 2.1-2.7-1 1.3-1.3 1.7-2.6 3.3-3.9 4.9-18.9 23.9-36.3 49.6-31.1 81.6 2 12.5 8.4 24.9 18.4 32.9 12.2 9.8 26.9 12.8 42.2 10.1 30.2-5.3 48.3-34 48.8-63.2.5-31.3-17.2-57.9-36.9-80.6-42.6-49.1-96.8-86.4-144.8-129.8-6.8-6.1-18.1-7.2-24.7 0-6.3 6.6-7.4 18.1-.2 24.6zM596.1 437.9c-1.2 53.7-2.5 107.5-3.7 161.2-.2 9.2 8.2 17.9 17.5 17.5 9.7-.4 17.3-7.7 17.5-17.5 1.2-53.7 2.5-107.5 3.7-161.2.2-9.2-8.2-17.9-17.5-17.5-9.6.4-17.2 7.7-17.5 17.5zM611.8 618.7c68.2-.9 136.4-1.9 204.6-2.8 19.6-.3 39.3-.5 58.9-.8 9.1-.1 17.9-8 17.5-17.5-.4-9.4-7.7-17.6-17.5-17.5-68.2.9-136.4 1.9-204.6 2.8-19.6.3-39.3.5-58.9.8-9.1.1-17.9 8-17.5 17.5.4 9.4 7.7 17.7 17.5 17.5zM867.1 434.8v162.7c0 9.2 8 17.9 17.5 17.5 9.5-.4 17.5-7.7 17.5-17.5V434.8c0-9.2-8-17.9-17.5-17.5-9.5.4-17.5 7.7-17.5 17.5zM769.2 431.7l.9 167.4c.1 9.2 8 17.9 17.5 17.5 9.4-.4 17.6-7.7 17.5-17.5l-.9-167.4c-.1-9.2-8-17.9-17.5-17.5-9.5.4-17.6 7.7-17.5 17.5zM1019.8 509.2h135.1c9.2 0 17.9-8 17.5-17.5-.4-9.5-7.7-17.5-17.5-17.5h-135.1c-9.2 0-17.9 8-17.5 17.5.4 9.4 7.7 17.5 17.5 17.5zM1019.8 575.8h135.1c9.2 0 17.9-8 17.5-17.5-.4-9.5-7.7-17.5-17.5-17.5h-135.1c-9.2 0-17.9 8-17.5 17.5.4 9.5 7.7 17.5 17.5 17.5zM1079.4 415c-2.2.1-4.3.1-6.4 0-1.3-.1-7.4-1.1-3.1-.2-4.2-.9-8.2-1.8-12.2-3.2-3.1-1-.3-.1.3.2-1.1-.5-2.1-1-3.1-1.5-1.9-1-3.6-2.2-5.4-3.2-.6-.4-2.6-2 .1.2-.7-.6-1.5-1.2-2.2-1.8-1.8-1.6-3.5-3.4-5.1-5.2-2.2-2.4-.5-.5 0 0-.7-1-1.5-2.1-2.1-3.2-1.3-2.1-2.5-4.3-3.7-6.5-1.5-3.1-2.8-6.1-4.4-11.6-1.4-4.7-2.4-9.4-3.3-14.2-.2-1.4-.5-2.8-.7-4.2-.1-.5-.4-3.4-.1-.5-.3-2.9-.7-5.7-.9-8.6-2-21.3-3.5-43-2.4-64.4.1-2.4.3-4.8.5-7.2l.3-3.6c0 .4.7-5.4.3-3-.3 1.9.3-1.7.3-2.1.2-1.5.5-2.9.8-4.4.6-2.9 1.3-5.8 2-8.7.6-2.3 1.3-4.6 2.1-6.8.4-1.1.8-2.2 1.2-3.4 1.8-5.4-.8 1.4.4-1.2 2-4.3 4.2-8.4 6.8-12.4.6-.9 3.8-5.2 1.7-2.5 1.2-1.6 2.5-3.1 3.9-4.6 1.5-1.7 3.1-3.2 4.7-4.8.9-.8 1.8-1.7 2.8-2.5.3-.3 3.5-2.8 1.7-1.4-2.1 1.5 1.8-1.3 1.8-1.2.8-.5 1.6-1.1 2.5-1.6 1.6-1 3.3-2 5.1-2.9 0 0 4.3-2.1 1.8-1-2 1 .7-.3 1.2-.5 2.2-.8 4.5-1.5 6.8-2.1 1.2-.3 2.3-.5 3.5-.7-.6.1-3.8.3-.4.1 1.9-.1 3.8-.3 5.7-.2 1 0 1.9.1 2.9.1 4.5.1-2.3-.6.4 0 2.4.6 4.7 1 7.1 1.7.9.3 1.8.7 2.7 1 2.6.8-3.5-2 .4.2 1.7.9 3.4 1.8 5 2.8.8.5 1.6 1.1 2.4 1.6 3.9 2.3-1.6-1.5.5.3 1.9 1.6 3.7 3.1 5.4 4.9 1.6 1.6 3 3.2 4.5 4.9.5.5 2 2.6 0-.1.6.8 1.2 1.6 1.7 2.4 2.5 3.7 4.8 7.5 6.7 11.5 0 0 2 4.4 1 1.9-1.1-2.4.8 2 .8 2 .8 2.2 1.5 4.4 2.2 6.6 1.6 5.3 2.6 10.6 3.6 16 1 5.7-.2-1.7.3 1.7.1 1.2.3 2.4.4 3.6.3 2.7.5 5.5.7 8.2.3 5.5.5 11 .5 16.5.1 10.9 0 21.9-.4 32.8-.2 6-.5 12-1 18l-.3 3.6c0 .4-.7 5.5-.3 2.5-.4 3-.9 5.9-1.5 8.8-1.2 5.8-2.8 11.6-4.8 17.2.1-.3-2.1 5.1-1.1 2.7.8-1.8-.8 1.7-1 2.1-1.1 2.2-2.3 4.4-3.6 6.4-1.3 2.1-2.7 4.1-4.2 6.1 2.1-2.8.1-.2-.5.5-1 1.1-1.9 2.2-3 3.3-1.7 1.8-3.5 3.5-5.3 5.1-.4.3-2.8 2.3-1.1.9 1.7-1.3-1.9 1.3-2.4 1.6-2 1.3-4.1 2.5-6.2 3.6-.5.2-3.2 1.5-1.2.6 2.1-1-2.1.7-2.6.9-2.3.7-4.6 1.2-6.9 1.7-2.5.6 3-.1.4-.1-1.7.3-3.4.5-5 .5-9.2 0-17.9 8.1-17.5 17.5.4 9.5 7.7 17.5 17.5 17.5 23.2.1 44.9-12 59.4-29.7 16.3-20.1 23-44 25.7-69.4 1.3-12.6 1.5-25.2 1.6-37.9.1-12.2.3-24.5-.7-36.7-1.9-24.2-7.4-48.8-22.3-68.6-14.5-19.3-35-33-59.7-34.1-22.8-1-45 10.4-60.7 26.2-36.7 36.9-34.9 91.3-31.7 139.5 1.8 26.7 4.7 56.1 20.8 78.5 15.7 21.8 40.8 32.8 67.5 32.1 9.1-.2 17.9-7.9 17.5-17.5-.4-9.2-7.6-17.7-17.4-17.4z"/></g></svg>